HIERARCHY
ROOT Hips
{
	OFFSET 0.000000 0.000000 0.000000
	CHANNELS 6 Xposition Yposition Zposition Zrotation Yrotation Xrotation 
	JOINT RightUpLeg
	{
		OFFSET -2.755168 0.000000 0.000000
		CHANNELS 3 Zrotation Yrotation Xrotation
		JOINT RightLeg
		{
			OFFSET 0.000000 -9.180870 0.000000
			CHANNELS 3 Zrotation Yrotation Xrotation
			End Site
			{
				OFFSET 0.000000 -9.222121 0.000000
			}
		}
	}
	JOINT LeftUpLeg
	{
		OFFSET 2.755168 0.000000 0.000000
		CHANNELS 3 Zrotation Yrotation Xrotation
		JOINT LeftLeg
		{
			OFFSET 0.000000 -9.180870 0.000000
			CHANNELS 3 Zrotation Yrotation Xrotation
			End Site
			{
				OFFSET 0.000000 -9.222121 0.000000
			}
		}
	}
	JOINT NeckBase
	{
		OFFSET 0.000000 10.107263 0.000000
		CHANNELS 3 Zrotation Yrotation Xrotation
		End Site
		{
			OFFSET 0.000000 2.415021 0.000000
		}
		JOINT LeftArm
		{
			OFFSET 3.069281 0.000000 0.000000
			CHANNELS 3 Zrotation Yrotation Xrotation
			JOINT LeftForeArm
			{
				OFFSET 5.739858 0.000000 0.000000
				CHANNELS 3 Zrotation Yrotation Xrotation
				End Site
				{
					OFFSET 5.144928 0.000000 0.000000
				}
			}
		}
		JOINT RightArm
		{
			OFFSET -3.069281 0.000000 0.000000
			CHANNELS 3 Zrotation Yrotation Xrotation
			JOINT RightForeArm
			{
				OFFSET -5.739858 0.000000 0.000000
				CHANNELS 3 Zrotation Yrotation Xrotation
				End Site
				{
					OFFSET -5.144928 0.000000 0.000000
				}
			}
		}
	}
}
MOTION
Frames: 2
Frame Time: 0.041667
0.000000 0.000000 0.000000 0.000000 0.000000 0.000000 0.000000 0.000000 0.000000 0.000000 0.000000 0.000000 0.000000 0.000000 0.000000 0.000000 0.000000 0.000000 0.000000 0.000000 0.000000 0.000000 0.000000 0.000000 0.000000 0.000000 0.000000 0.000000 0.000000 0.000000 0.000000 0.000000 0.000000
0.064668 -0.064221 -0.198159 0.357643 -17.810799 -179.843143 -173.241424 -28.659539 175.320847 nan nan nan -176.534900 30.096354 -175.405309 nan nan nan nan nan nan -31.138358 -8.885722 15.345255 nan nan nan 20.210554 3.009057 -178.487869 nan nan nan
